<svg id="Capa_1" enable-background="new 0 0 512 512" height="512" viewBox="0 0 512 512" width="512" xmlns="http://www.w3.org/2000/svg"><g><path d="m265.902 3.735c-2.827-2.49-6.364-3.735-9.902-3.735s-7.075 1.245-9.902 3.735l-69.302 61h79.204 79.204z" fill="#3aaaff"/><path d="m265.902 3.735c-2.827-2.49-6.364-3.735-9.902-3.735v64.735h79.204z" fill="#6b77e8"/><path d="m506.902 214.735-61-52.72h-189.902-189.902l-61 52.72c-3.238 2.842-5.098 6.944-5.098 11.265v271c0 8.291 6.709 15 15 15h241 241c8.291 0 15-6.709 15-15v-271c0-4.321-1.86-8.423-5.098-11.265z" fill="#3aaaff"/><path d="m512 497v-271c0-4.321-1.86-8.423-5.098-11.265l-61-52.72h-189.902v349.985h241c8.291 0 15-6.709 15-15z" fill="#6b77e8"/><path d="m412.694 447.646-92.314-75c-6.431-5.229-7.397-14.678-2.183-21.108 5.244-6.416 14.677-7.383 21.108-2.183l92.314 75c6.431 5.229 7.397 14.678 2.183 21.108-5.242 6.431-14.677 7.395-21.108 2.183z" fill="#615ad3"/><path d="m78.197 445.463c-5.215-6.431-4.248-15.879 2.183-21.108l92.314-75c6.43-5.229 15.879-4.219 21.108 2.183 5.215 6.431 4.248 15.879-2.183 21.108l-92.314 75c-6.406 5.192-15.846 4.271-21.108-2.183z" fill="#6b77e8"/><path d="m436 61h-180-180c-8.291 0-15 6.709-15 15 0 0 0 193.916.015 194.077.154 5.528 2.629 8.066 5.435 11.074l179.897 151.333c.015.015.044.029.059.044 2.798 2.329 6.202 3.457 9.595 3.457 3.453-.002 6.894-1.174 9.668-3.501l179.795-146.089c3.501-2.856 5.537-7.134 5.537-11.646v-198.749c-.001-8.291-6.71-15-15.001-15z" fill="#f0f7ff"/><path d="m265.668 432.484 179.795-146.089c3.501-2.856 5.537-7.134 5.537-11.646v-198.749c0-8.291-6.709-15-15-15h-180v374.985c3.453-.001 6.894-1.173 9.668-3.501z" fill="#dfe7f4"/><path d="m256 121c-57.891 0-105 47.109-105 105s47.109 105 105 105c8.643 0 17.227-1.055 25.488-3.135 8.027-2.021 12.905-10.166 10.884-18.208-2.007-8.027-10.166-12.817-18.208-10.884-5.874 1.48-11.982 2.227-18.164 2.227-41.353 0-75-33.647-75-75s33.647-75 75-75 75 33.647 75 75c0 8.276-6.724 15-15 15s-15-6.724-15-15c0-24.814-20.186-45-45-45s-45 20.186-45 45 20.186 45 45 45c11.567 0 22.02-4.508 30-11.704 7.98 7.196 18.433 11.704 30 11.704 24.814 0 45-20.186 45-45 0-57.891-47.109-105-105-105zm0 120c-8.276 0-15-6.724-15-15s6.724-15 15-15 15 6.724 15 15-6.724 15-15 15z" fill="#fe8205"/><g fill="#fa5d0f"><path d="m331 226c0 8.276-6.724 15-15 15s-15-6.724-15-15c0-24.814-20.186-45-45-45v30c8.276 0 15 6.724 15 15s-6.724 15-15 15v30c11.567 0 22.02-4.508 30-11.704 7.98 7.196 18.433 11.704 30 11.704 24.814 0 45-20.186 45-45 0-57.891-47.109-105-105-105v30c41.353 0 75 33.647 75 75z"/><path d="m292.372 309.657c-2.007-8.027-10.166-12.817-18.208-10.884-5.874 1.48-11.982 2.227-18.164 2.227v30c8.643 0 17.227-1.055 25.488-3.135 8.028-2.021 12.906-10.166 10.884-18.208z"/></g></g></svg>