<svg height="489pt" viewBox="-24 0 489 489.75285" width="489pt" xmlns="http://www.w3.org/2000/svg" xmlns:xlink="http://www.w3.org/1999/xlink"><linearGradient id="lg1"><stop offset=".322" stop-color="#a163f5"/><stop offset=".466" stop-color="#b074ee"/><stop offset=".752" stop-color="#d8a1dd"/><stop offset=".898" stop-color="#efbad3"/></linearGradient><linearGradient id="linear0" gradientUnits="userSpaceOnUse" x1="131.538425" x2="131.538425" xlink:href="#lg1" y1="478.869994" y2="15.141994"/><linearGradient id="linear1" gradientUnits="userSpaceOnUse" x1="35.947425" x2="35.947425" xlink:href="#lg1" y1="478.869994" y2="15.141994"/><linearGradient id="linear2" gradientUnits="userSpaceOnUse" x1="135.947425" x2="135.947425" xlink:href="#lg1" y1="478.869994" y2="15.141994"/><linearGradient id="linear3" gradientUnits="userSpaceOnUse" x1="196.267425" x2="196.267425" xlink:href="#lg1" y1="478.869994" y2="15.141994"/><linearGradient id="linear4" gradientUnits="userSpaceOnUse" x1="131.093425" x2="131.093425" xlink:href="#lg1" y1="478.869994" y2="15.141994"/><linearGradient id="linear5" gradientUnits="userSpaceOnUse" x1="184.466425" x2="184.466425" xlink:href="#lg1" y1="478.869994" y2="15.141994"/><linearGradient id="linear6" gradientUnits="userSpaceOnUse" x1="336.193425" x2="336.193425" xlink:href="#lg1" y1="478.869994" y2="15.141994"/><path d="m131.539062 56.28125c13.421876-.011719 24.972657-9.5 27.582032-22.667969 2.613281-13.167969-4.441406-26.347656-16.847656-31.476562-12.402344-5.132813-26.707032-.785157-34.160157 10.382812-7.449219 11.164063-5.980469 26.039063 3.519531 35.527344 5.273438 5.285156 12.4375 8.246094 19.90625 8.234375zm-11.421874-39.5625c6.304687-6.308594 16.535156-6.308594 22.84375 0 6.308593 6.308594 6.308593 16.535156 0 22.84375-6.308594 6.308594-16.539063 6.308594-22.84375 0-3.042969-3.023438-4.753907-7.132812-4.753907-11.421875s1.710938-8.398437 4.753907-11.421875zm0 0" fill="url(#linear0)"/><path d="m35.949219 129.738281c13.421875-.007812 24.972656-9.496093 27.582031-22.664062 2.613281-13.167969-4.441406-26.347657-16.847656-31.476563-12.40625-5.132812-26.707032-.785156-34.160156 10.378906-7.453126 11.167969-5.980469 26.042969 3.515624 35.53125 5.277344 5.28125 12.441407 8.246094 19.910157 8.230469zm-11.425781-39.558593c6.308593-6.3125 16.539062-6.3125 22.847656-.003907 6.308594 6.308594 6.308594 16.539063 0 22.847657-6.308594 6.308593-16.539063 6.308593-22.847656 0-3.039063-3.023438-4.75-7.136719-4.75-11.421876 0-4.289062 1.710937-8.398437 4.75-11.421874zm0 0" fill="url(#linear1)"/><path d="m116.039062 441.691406c-10.992187 10.996094-10.992187 28.820313 0 39.816406 10.996094 10.992188 28.820313 10.992188 39.816407 0 10.992187-10.996093 10.992187-28.820312 0-39.816406-11-10.976562-28.8125-10.976562-39.816407 0zm31.332032 31.332032c-6.308594 6.300781-16.527344 6.296874-22.832032-.007813-6.300781-6.304687-6.300781-16.527344 0-22.832031 6.304688-6.304688 16.523438-6.308594 22.832032-.003906 6.296875 6.3125 6.296875 16.527343 0 22.84375zm0 0" fill="url(#linear2)"/><path d="m192.023438 93.433594c2.34375 2.339844 6.144531 2.339844 8.484374 0l26.535157-26.535156c2.34375-2.34375 2.34375-6.140626 0-8.484376l-26.535157-26.535156c-2.339843-2.34375-6.140624-2.34375-8.484374 0l-26.53125 26.535156c-2.34375 2.34375-2.34375 6.140626 0 8.484376zm4.242187-48.824219 18.050781 18.046875-18.050781 18.046875-18.046875-18.046875zm0 0" fill="url(#linear3)"/><path d="m106.59375 142.089844c.164062 2.257812 1.585938 4.230468 3.675781 5.101562 2.089844.871094 4.492188.492188 6.214844-.984375l40.277344-34.550781c1.71875-1.472656 2.457031-3.789062 1.917969-5.988281-.542969-2.199219-2.277344-3.902344-4.484376-4.410157l-43.519531-9.988281c-1.855469-.425781-3.800781.054688-5.246093 1.292969-1.445313 1.242188-2.21875 3.09375-2.078126 4.992188zm33.328125-31.800782-22.226563 19.066407-1.789062-24.574219zm0 0" fill="url(#linear4)"/><path d="m259.648438 402.703125 11.492187 11.980469c1.738281 1.816406 4.429687 2.351562 6.734375 1.34375l32.621094-14.269532c2.332031-1.019531 3.765625-3.398437 3.578125-5.9375l-1.21875-16.570312c7.6875-6.070312 14.476562-13.195312 20.164062-21.171875l16.546875.488281c2.542969.074219 4.855469-1.464844 5.773438-3.835937l12.816406-33.203125c.910156-2.363282.238281-5.042969-1.679688-6.699219l-12.445312-10.742187c.988281-9.722657.734375-19.527344-.753906-29.1875l11.980468-11.488282c1.816407-1.742187 2.351563-4.429687 1.34375-6.734375l-14.273437-32.621093c-1.015625-2.335938-3.394531-3.769532-5.933594-3.578126l-16.574219 1.214844c-6.066406-7.6875-13.195312-14.476562-21.167968-20.164062l.488281-16.542969c.074219-2.546875-1.464844-4.859375-3.835937-5.773437l-33.203126-12.816407c-2.386718-.917969-5.089843-.246093-6.773437 1.675781l-2.953125 3.332032v-9.515625c.035156-1.578125-.566406-3.105469-1.667969-4.234375-1.101562-1.132813-2.609375-1.773438-4.1875-1.78125h-24.734375c4.5625-11.730469.777344-25.0625-9.261718-32.652344-10.042969-7.589844-23.898438-7.589844-33.941407 0-10.039062 7.589844-13.824219 20.921875-9.261719 32.652344h-172.761718c-3.351563-.007813-6.097656 2.664062-6.183594 6.015625v39.191406c.03125.347656.09375.691406.1875 1.03125.003906.03125.050781.058594.058594.089844.070312.328125.167968.648437.292968.957031.011719.035156.035157.070312.046876.101562.121093.300782.265624.59375.433593.875.023438.039063.050781.078126.074219.113282.171875.273437.363281.53125.574219.773437.015625.015625.015625.039063.03125.054688l95.300781 106.46875v109.851562c.007812 2.285157 1.308594 4.367188 3.355469 5.378907 2.050781 1.011718 4.496093.769531 6.3125-.617188l56.132812-43.109375c1.441407-1.15625 2.257813-2.921875 2.199219-4.765625v-4.695312c4 3.1875 7.140625 6.152343 10.9375 8.863281l-.410156 16.546875c-.058594 2.550781 1.492187 4.863281 3.875 5.773437l33.222656 12.816407c2.371094.914062 5.054688.242187 6.71875-1.679688l10.742188-12.445312c9.722656.984374 19.53125.730468 29.1875-.757813zm-65.519532-268.441406c6.316406-6.296875 16.53125-6.296875 22.847656 0 5.898438 5.902343 6.269532 15.613281 1.109376 21.613281h-25.066407c-5.160156-6.003906-4.792969-15.710938 1.109375-21.613281zm56.246094 33.609375v27h-238v-27zm-97 207.449218-44 33.917969v-99.988281c.003906-1.507812-.535156-2.964844-1.515625-4.105469l-87.882813-98.273437h223.121094l-16.019531 18c-.019531.019531-.039063.089844-.054687.109375l-71.96875 80.246093c-1.027344 1.09375-1.621094 2.523438-1.679688 4.023438zm89.183594-141.332031c32.03125 0 58 25.964844 58 58 0 32.03125-25.96875 58-58 58-32.035156 0-58-25.96875-58-58 0-.527343.03125-1.054687.046875-1.585937l50.019531-55.871094c2.628906-.359375 5.277344-.542969 7.933594-.542969zm-19.101563 159.226563-10.058593 11.65625-25.300782-9.765625.457032-15.558594c.003906-2.09375-1.0625-4.042969-2.820313-5.171875-7.617187-5.128906-14.46875-11.308594-20.359375-18.351562v-44.480469l7.886719-8.636719c5.710937 36.40625 38.65625 62.160156 75.367187 58.917969 36.710938-3.242188 64.632813-34.371094 63.875-71.21875-.753906-36.84375-29.929687-66.804688-66.742187-68.535157l15.21875-16.992187c.015625-.015625.03125-.039063.046875-.054687.210937-.242188.402344-.5.574218-.773438.023438-.035156.046876-.074219.070313-.113281.167969-.28125.3125-.574219.429687-.875.015626-.035157.027344-.070313.039063-.101563.117187-.308594.207031-.628906.269531-.957031.007813-.03125-.0625-.058594-.058594-.089844.039063-.34375.046876-.6875.023438-1.03125v-11.3125l9.273438-10.664062 25.335937 9.765625-.4375 15.5625c-.058594 2.066406.953125 4.019531 2.675781 5.167968 8.867188 5.902344 16.640625 13.304688 22.976563 21.875 1.21875 1.65625 3.210937 2.570313 5.265625 2.414063l15.570312-1.144531 10.890625 24.894531-11.25 10.792969c-1.453125 1.394531-2.109375 3.425781-1.746093 5.40625 1.929687 10.539062 2.207031 21.3125.824218 31.933594-.261718 2 .503906 4 2.03125 5.316406l11.652344 10.058594-9.765625 25.296874-15.5625-.457031c-2.070313-.058593-4.023437.949219-5.167969 2.671875-5.90625 8.867188-13.308594 16.640625-21.878906 22.96875-1.652344 1.222656-2.566406 3.210938-2.414062 5.261719l1.144531 15.574219-24.894531 10.890625-10.789063-11.25c-1.394531-1.453125-3.425781-2.109375-5.40625-1.75-10.539063 1.933593-21.3125 2.210937-31.9375.828125-2-.261719-3.996094.503906-5.3125 2.03125zm0 0" fill="url(#linear5)"/><path d="m400.375 163.132812 20.417969-20.414062c1.558593-1.558594 2.136719-3.847656 1.507812-5.960938-.632812-2.113281-2.371093-3.707031-4.53125-4.15625l-60-12.46875c-1.980469-.414062-4.035156.199219-5.464843 1.628907-1.429688 1.429687-2.046876 3.484375-1.632813 5.464843l12.46875 60c.449219 2.15625 2.042969 3.894532 4.15625 4.527344 2.113281.628906 4.402344.050782 5.960937-1.507812l18.621094-18.621094c27.757813 34.976562 41.253906 79.160156 37.78125 123.675781-3.132812 40.8125-19.925781 79.214844-46.074218 105.363281-17.050782 17.054688-39.480469 30.285157-64.859376 38.269532-26.375 8.277344-54.292968 10.414062-81.621093 6.25-3.273438-.507813-6.339844 1.738281-6.84375 5.011718-.507813 3.277344 1.738281 6.339844 5.011719 6.847657 9.613281 1.480469 19.324218 2.21875 29.050781 2.21875 19.671875 0 39.230469-2.996094 58-8.882813 27.214843-8.558594 51.332031-22.816406 69.746093-41.230468 28.144532-28.140626 46.199219-69.300782 49.550782-112.929688 3.722656-47.699219-10.800782-95.035156-40.640625-132.433594-.183594-.234375-.386719-.449218-.605469-.652344zm-27.742188 10.773438-8.347656-40.164062 40.164063 8.347656zm0 0" fill="url(#linear6)"/></svg>