<svg id="Capa_1" enable-background="new 0 0 512 512" height="512" viewBox="0 0 512 512" width="512" xmlns="http://www.w3.org/2000/svg"><path d="m469.476 0h-127.52l-105.972 20.016 20.016 491.984h213.476z" fill="#212cbb"/><path d="m42.524 0v512h213.476v-491.984l-85.956-20.016z" fill="#005fe1"/><path d="m435.741 33.734h-179.741l-20.016 207.266 20.016 237.266h179.741z" fill="#e1ebf0"/><path d="m76.259 33.734h179.741v444.531h-179.741z" fill="#fff5f5"/><path d="m341.956 0h-85.956l-20.016 26.333 20.016 37.401h85.956z" fill="#b4d2d7"/><path d="m170.044 0h85.956v63.734h-85.956z" fill="#e1ebf0"/><g fill="#738c96"><path d="m124.073 113.429h31.893v30h-31.893z"/><path d="m124.073 177.214h31.893v30h-31.893z"/><path d="m124.073 241h31.893v30h-31.893z"/><path d="m124.073 304.786h31.893v30h-31.893z"/><path d="m124.073 368.571h31.893v30h-31.893z"/></g><path d="m387.927 113.429h-131.927l-10.008 15 10.008 15h131.927z" fill="#55696e"/><path d="m387.927 177.215h-131.927l-10.008 15 10.008 15h131.927z" fill="#55696e"/><path d="m387.927 241h-131.927l-10.008 15 10.008 15h131.927z" fill="#55696e"/><path d="m387.927 304.785h-131.927l-10.008 15 10.008 15h131.927z" fill="#55696e"/><path d="m387.927 368.571h-131.927l-10.008 15 10.008 15h131.927z" fill="#55696e"/><path d="m187.859 177.214h68.141v30h-68.141z" fill="#738c96"/><path d="m187.859 241h68.141v30h-68.141z" fill="#738c96"/><path d="m187.859 304.786h68.141v30h-68.141z" fill="#738c96"/><path d="m187.859 368.571h68.141v30h-68.141z" fill="#738c96"/><path d="m187.859 113.429h68.141v30h-68.141z" fill="#738c96"/></svg>